<?xml version="1.0" standalone="no"?>
<!DOCTYPE svg PUBLIC "-//W3C//DTD SVG 20010904//EN"
 "http://www.w3.org/TR/2001/REC-SVG-20010904/DTD/svg10.dtd">
<svg version="1.0" xmlns="http://www.w3.org/2000/svg"
 width="1080.000000pt" height="1080.000000pt" viewBox="0 0 1080.000000 1080.000000"
 preserveAspectRatio="xMidYMid meet">
<metadata>
Created by potrace 1.16, written by Peter Selinger 2001-2019
</metadata>
<g transform="translate(0.000000,1080.000000) scale(0.100000,-0.100000)"
fill="#000000" stroke="none">
<path d="M5067 9319 c-62 -15 -112 -45 -161 -99 -127 -143 -90 -368 77 -464
122 -70 333 -53 430 35 l42 38 -50 43 c-27 24 -54 43 -60 43 -5 1 -26 -9 -45
-22 -94 -60 -214 -43 -255 36 l-15 30 53 5 c62 6 354 26 381 26 17 0 18 6 13
64 -10 105 -68 195 -155 240 -63 32 -177 43 -255 25z m184 -168 c60 -59 54
-67 -53 -75 -111 -7 -178 -8 -178 -1 0 3 9 23 20 45 25 49 61 69 124 70 43 0
53 -4 87 -39z"/>
<path d="M5562 9039 c-18 -160 -31 -293 -29 -295 7 -8 179 -26 185 -20 3 3 14
79 24 169 21 182 35 221 90 249 65 34 147 0 164 -68 4 -15 -2 -106 -13 -203
-11 -97 -19 -177 -18 -179 4 -5 186 -25 189 -21 2 2 14 93 26 202 19 167 21
207 11 251 -25 112 -124 180 -261 179 -46 0 -90 -6 -112 -16 -38 -16 -38 -16
-38 7 0 21 -6 24 -67 29 -38 4 -79 7 -93 7 l-25 0 -33 -291z"/>
<path d="M6808 9226 c-58 -21 -87 -43 -118 -93 -41 -64 -47 -119 -21 -179 28
-63 38 -73 156 -162 147 -110 171 -146 125 -192 -49 -49 -194 4 -289 105 -29
30 -60 55 -69 55 -10 0 -40 -23 -67 -50 l-50 -50 71 -68 c70 -67 162 -121 253
-149 54 -16 170 -17 222 -2 123 37 187 188 125 293 -26 43 -63 77 -188 169
-97 71 -115 96 -98 136 19 46 58 57 126 35 53 -17 152 -80 183 -117 7 -9 21
-17 29 -17 22 0 102 80 102 101 0 10 -19 34 -42 54 -131 113 -334 172 -450
131z"/>
<path d="M4372 9203 c-23 -8 -58 -30 -77 -47 -30 -29 -35 -31 -40 -15 -6 19
-10 19 -117 -7 -38 -9 -68 -18 -68 -21 0 -5 53 -211 157 -608 24 -93 46 -171
48 -174 2 -2 45 7 95 19 73 18 90 25 86 39 -11 35 -56 214 -56 220 0 4 35 6
78 3 61 -3 88 0 133 17 177 67 244 254 154 432 -55 107 -143 159 -270 158 -44
0 -99 -7 -123 -16z m175 -164 c77 -71 82 -215 10 -262 -96 -61 -185 -27 -223
85 -26 80 -5 149 59 189 43 27 117 21 154 -12z"/>
<path d="M3519 9082 c-90 -30 -157 -72 -219 -138 -79 -85 -104 -150 -105 -269
0 -81 3 -97 33 -160 40 -85 107 -156 187 -198 58 -31 64 -32 180 -32 102 0
129 4 178 24 79 31 172 105 218 171 137 198 58 478 -162 580 -92 42 -220 51
-310 22z m150 -153 c59 -12 131 -71 163 -132 26 -51 34 -142 18 -192 -27 -81
-117 -151 -210 -162 -129 -15 -260 126 -247 267 9 104 72 185 167 215 57 17
50 17 109 4z"/>
<path d="M7345 8727 c-60 -29 -129 -101 -158 -165 -52 -118 -9 -271 101 -358
83 -65 148 -87 247 -82 128 5 215 61 272 173 77 151 5 334 -164 417 -57 28
-79 33 -157 36 -80 3 -97 0 -141 -21z m235 -155 c14 -10 36 -34 48 -53 70
-102 -52 -275 -169 -240 -47 14 -96 71 -104 122 -12 68 46 164 115 192 25 10
83 -1 110 -21z"/>
<path d="M7917 8275 c-152 -164 -177 -206 -177 -292 0 -113 92 -220 210 -245
l60 -12 -20 -21 -20 -22 60 -57 c49 -47 63 -55 78 -47 10 5 88 86 174 178 223
242 228 247 228 254 0 12 -119 109 -133 109 -8 0 -65 -54 -127 -120 -118 -126
-149 -150 -199 -150 -34 0 -84 38 -106 80 -28 55 -8 92 134 245 61 66 111 123
111 127 0 12 -110 112 -126 114 -8 1 -74 -62 -147 -141z"/>
<path d="M2964 8042 c-45 -38 -56 -90 -29 -142 20 -39 43 -50 104 -50 61 0 98
27 110 82 10 42 -5 82 -42 110 -30 24 -115 23 -143 0z"/>
<path d="M2285 7941 c-14 -20 -31 -60 -37 -88 -12 -48 -14 -51 -38 -46 -23 4
-34 -4 -78 -55 l-52 -60 228 -190 c126 -105 235 -190 244 -188 9 1 40 30 69
65 l53 64 -25 19 c-135 108 -222 185 -239 212 -29 48 -26 103 10 159 17 26 30
49 30 51 0 8 -111 90 -125 92 -9 1 -26 -14 -40 -35z"/>
<path d="M8386 7670 c-124 -99 -226 -183 -226 -188 0 -16 99 -129 113 -129 9
0 70 44 136 98 66 54 137 103 156 109 47 16 95 -1 134 -46 17 -19 37 -34 46
-34 21 0 125 79 125 95 0 23 -72 75 -128 92 l-53 17 28 21 27 22 -49 62 c-26
33 -56 61 -65 61 -9 0 -119 -81 -244 -180z"/>
<path d="M1975 7455 c-94 -35 -184 -148 -204 -257 -27 -141 43 -269 183 -334
64 -30 167 -33 240 -7 71 26 158 109 198 191 28 57 33 77 33 142 l0 75 -50 -1
c-27 0 -62 -3 -77 -7 -25 -7 -28 -12 -28 -50 0 -57 -40 -138 -84 -172 -32 -25
-116 -47 -116 -31 0 7 187 319 216 361 8 11 14 23 14 27 0 4 -28 22 -62 40
-52 26 -77 32 -143 34 -53 3 -94 -1 -120 -11z m122 -143 c8 -5 -9 -40 -53
-112 -36 -58 -69 -111 -73 -119 -13 -21 -41 39 -41 86 0 93 105 184 167 145z"/>
<path d="M8691 7360 c-214 -100 -252 -350 -82 -534 47 -50 123 -86 184 -86
l47 0 0 74 0 74 -45 11 c-129 33 -159 194 -50 277 103 79 241 7 232 -121 -2
-27 -6 -57 -10 -65 -5 -11 9 -24 53 -49 86 -50 96 -48 120 16 24 65 25 93 4
163 -30 102 -98 186 -188 232 -61 32 -205 36 -265 8z"/>
<path d="M1675 6842 c-66 -23 -108 -54 -144 -105 -52 -77 -72 -164 -52 -232 8
-28 7 -30 -21 -30 -27 0 -31 -5 -58 -73 l-28 -73 35 -14 c20 -8 37 -15 39 -15
2 0 157 -58 344 -130 187 -71 346 -127 354 -124 12 5 66 127 66 149 0 6 -42
25 -93 44 -164 61 -164 61 -142 73 57 30 96 84 121 167 18 59 17 94 -1 154
-30 101 -106 171 -223 207 -78 24 -131 25 -197 2z m179 -190 c118 -69 91 -253
-40 -278 -39 -7 -108 15 -143 45 -73 64 -57 200 30 244 41 21 107 16 153 -11z"/>
<path d="M8989 6786 c-82 -29 -141 -80 -181 -156 -32 -63 -32 -200 1 -279 29
-72 76 -135 122 -166 57 -37 71 -33 102 31 l27 55 -43 42 c-77 75 -94 189 -39
256 17 21 19 17 91 -176 40 -109 77 -202 82 -207 12 -14 85 11 140 46 94 62
145 183 122 291 -37 175 -156 278 -321 277 -37 -1 -83 -7 -103 -14z m199 -166
c45 -28 72 -76 72 -130 0 -44 -29 -110 -49 -110 -5 0 -21 33 -36 73 -59 156
-65 172 -65 179 0 15 45 8 78 -12z"/>
<path d="M1453 6111 c-113 -53 -183 -162 -191 -297 -8 -147 46 -247 163 -305
154 -76 341 -22 418 120 99 180 47 384 -117 469 -70 36 -210 43 -273 13z m197
-180 c57 -30 83 -76 78 -139 -8 -94 -71 -148 -163 -138 -79 9 -145 74 -145
144 0 48 33 113 67 134 38 23 119 23 163 -1z"/>
<path d="M9331 5784 c-184 -18 -336 -35 -338 -37 -4 -5 55 -588 61 -594 2 -3
39 -2 80 2 90 9 83 -20 57 240 -12 114 -15 182 -9 186 11 7 140 21 145 15 2
-1 10 -72 18 -157 22 -217 14 -200 83 -193 89 8 101 12 96 31 -10 43 -32 329
-26 334 4 4 37 9 75 13 51 5 67 4 67 -6 0 -24 30 -323 35 -355 6 -31 8 -33 48
-33 23 0 59 3 81 7 l38 6 -6 51 c-3 28 -13 125 -21 216 -8 91 -17 181 -20 200
-3 19 -6 52 -7 73 l-2 37 -61 -1 c-33 -1 -210 -16 -394 -35z"/>
<path d="M988 5385 c-5 -5 -8 -44 -8 -87 l0 -78 28 -1 c15 0 198 -8 407 -18
209 -9 385 -16 392 -13 10 3 30 158 22 166 -5 4 -409 24 -657 32 -97 4 -180 3
-184 -1z"/>
<path d="M1393 5069 c-61 -24 -123 -82 -155 -147 -32 -65 -32 -205 -1 -274 53
-116 155 -182 283 -183 200 0 320 123 320 327 0 99 -22 175 -67 227 -49 58
-66 58 -113 1 l-41 -49 28 -42 c21 -33 28 -56 31 -109 4 -73 -8 -108 -51 -148
l-25 -23 -6 43 c-3 24 -10 104 -16 178 -6 74 -13 154 -16 178 l-5 42 -57 -1
c-32 0 -80 -9 -109 -20z m71 -284 c4 -60 10 -118 12 -127 9 -32 -36 -21 -72
17 -39 41 -52 104 -34 159 13 41 71 92 81 73 4 -7 10 -61 13 -122z"/>
<path d="M9046 5053 c-3 -21 -7 -60 -8 -88 l-3 -50 172 -17 c106 -10 184 -23
202 -33 61 -31 85 -137 44 -193 -35 -47 -68 -52 -261 -34 -95 8 -175 13 -178
10 -6 -6 -23 -160 -19 -166 6 -8 290 -31 375 -31 142 -1 211 39 252 144 24 62
19 180 -10 230 -12 20 -22 38 -22 41 0 2 13 4 29 4 28 0 29 1 36 76 8 83 3 93
-45 94 -14 0 -70 5 -125 10 -55 6 -152 15 -215 20 -63 5 -138 12 -167 16 l-51
5 -6 -38z"/>
<path d="M1265 4343 c3 -16 13 -51 21 -80 17 -60 -7 -52 254 -89 102 -14 186
-27 187 -28 1 -1 -74 -59 -167 -129 -94 -70 -170 -133 -170 -140 0 -6 9 -43
18 -82 12 -47 24 -71 34 -73 9 -2 90 53 180 122 90 69 194 150 232 179 37 28
77 59 88 68 20 15 20 16 3 92 -10 42 -21 81 -25 87 -5 9 -592 100 -643 100
-16 0 -18 -5 -12 -27z"/>
<path d="M9417 4333 c-3 -5 -8 -23 -12 -40 -3 -18 -11 -33 -16 -33 -6 0 -64
14 -129 30 -210 53 -281 36 -340 -83 -27 -56 -31 -72 -28 -133 l3 -69 55 3
c90 4 97 7 92 40 -6 43 23 92 54 92 30 0 236 -50 247 -60 5 -4 1 -35 -8 -70
-9 -35 -13 -66 -8 -71 4 -4 36 -13 71 -20 73 -15 73 -16 92 68 11 52 13 55 38
49 15 -3 48 -9 73 -12 l46 -6 18 73 c10 41 18 78 19 83 0 5 -28 17 -64 26 -69
17 -72 22 -56 81 7 25 5 27 -58 43 -74 18 -83 19 -89 9z"/>
<path d="M8831 3898 c-17 -39 -31 -76 -31 -82 0 -6 53 -33 118 -60 64 -28 139
-60 165 -73 80 -39 107 -112 71 -189 -40 -83 -81 -83 -278 1 -84 36 -161 65
-172 65 -14 0 -27 -19 -51 -75 l-31 -75 26 -14 c63 -32 340 -145 371 -151 18
-4 57 -4 87 0 123 15 214 128 214 266 0 38 2 69 4 69 2 0 51 -20 109 -45 58
-25 114 -45 125 -45 14 0 27 19 51 76 18 42 31 77 29 79 -2 1 -106 46 -233
100 -126 53 -250 106 -275 118 -105 47 -201 86 -233 95 l-35 10 -31 -70z"/>
<path d="M1908 3761 l-26 -60 38 -25 c69 -46 112 -146 92 -215 -7 -21 -19 -44
-27 -51 -13 -10 -19 -3 -44 51 -15 35 -42 93 -58 129 -70 152 -83 181 -83 190
0 37 -118 -20 -181 -87 -56 -59 -74 -107 -73 -193 1 -88 33 -166 92 -228 72
-76 120 -97 222 -97 76 0 92 3 152 33 115 56 168 142 168 269 0 149 -108 317
-218 339 -26 5 -29 2 -54 -55z m-107 -278 c27 -59 52 -118 56 -132 6 -23 4
-24 -32 -18 -52 8 -81 30 -106 79 -15 30 -20 53 -16 85 4 38 29 93 42 93 3 0
28 -48 56 -107z"/>
<path d="M8555 3231 c-94 -43 -153 -123 -162 -220 -5 -57 -6 -58 -32 -52 -23
7 -30 1 -68 -53 -24 -34 -43 -65 -42 -71 0 -13 463 -325 489 -330 14 -3 31 14
66 66 26 38 46 70 43 72 -2 2 -68 47 -146 101 -146 101 -173 130 -173 191 0
36 27 92 54 110 47 34 83 21 241 -85 81 -55 155 -100 164 -100 14 0 101 119
101 137 -1 16 -313 217 -363 234 -66 23 -122 23 -172 0z"/>
<path d="M2090 3156 c-31 -6 -78 -24 -105 -40 -196 -115 -257 -321 -154 -523
36 -73 244 -357 264 -361 13 -3 635 443 635 455 0 14 -246 336 -283 370 -50
46 -130 86 -205 102 -63 13 -80 13 -152 -3z m173 -180 c58 -21 97 -56 164
-148 l61 -85 -176 -129 c-96 -71 -181 -132 -188 -137 -13 -8 -96 99 -132 169
-50 100 -36 182 47 264 76 76 142 95 224 66z"/>
<path d="M8165 2727 c-76 -41 -175 -137 -208 -204 -52 -103 -45 -175 23 -237
74 -67 140 -62 257 19 43 30 93 62 111 72 32 17 34 17 47 -1 30 -41 -50 -145
-140 -182 -25 -11 -45 -22 -45 -26 0 -4 9 -32 21 -63 15 -41 25 -55 40 -55 66
0 233 139 277 231 23 48 29 129 13 171 -14 37 -68 84 -111 97 -69 20 -120 0
-269 -105 -68 -48 -91 -47 -91 3 0 38 92 128 167 164 35 16 63 33 63 37 0 4
-10 30 -22 59 -27 65 -45 68 -133 20z"/>
<path d="M7720 2323 c-30 -25 -55 -51 -55 -58 0 -16 352 -445 371 -452 14 -5
94 49 128 86 20 22 22 18 -76 136 -9 11 -43 52 -75 90 -32 39 -76 93 -98 120
-77 94 -107 125 -124 124 -9 0 -41 -21 -71 -46z"/>
<path d="M2938 2327 c-119 -34 -219 -156 -235 -285 -16 -142 106 -299 242
-310 30 -2 55 -7 55 -9 0 -3 -36 -52 -80 -109 -44 -57 -80 -107 -80 -113 0
-14 121 -101 141 -101 10 0 84 89 193 233 97 127 208 274 247 325 39 51 70 94
68 96 -96 76 -159 110 -159 86 0 -23 -17 -8 -29 26 -42 117 -227 199 -363 161z
m172 -176 c92 -48 107 -165 32 -244 -80 -85 -184 -72 -232 29 -27 55 -21 101
21 158 55 75 111 93 179 57z"/>
<path d="M7479 2136 c-76 -27 -140 -80 -172 -141 -9 -16 -16 -24 -17 -17 0 23
-45 12 -107 -28 l-63 -39 96 -153 c108 -172 158 -230 221 -254 125 -48 331 48
422 196 l30 49 -52 29 c-83 46 -85 46 -107 3 -30 -59 -128 -131 -178 -131 -21
0 -72 36 -72 51 0 5 37 33 83 63 129 83 177 142 177 216 0 35 -29 97 -57 122
-49 45 -135 59 -204 34z m63 -153 c24 -21 23 -75 -1 -97 -10 -10 -43 -33 -73
-51 -48 -31 -54 -33 -65 -18 -19 24 -16 94 5 121 23 30 72 62 96 62 11 0 28
-7 38 -17z"/>
<path d="M3542 1939 c-35 -10 -35 -15 -7 -99 12 -34 13 -35 76 -40 77 -7 131
-31 165 -76 24 -31 45 -114 30 -114 -4 0 -89 41 -188 91 -100 50 -190 92 -200
94 -15 3 -25 -9 -46 -53 -37 -79 -38 -185 -2 -255 101 -200 386 -245 537 -85
93 98 112 251 44 361 -78 127 -279 213 -409 176z m107 -378 l114 -58 -24 -21
c-27 -26 -80 -42 -111 -35 -38 9 -89 53 -104 89 -17 41 -18 84 -1 83 6 0 63
-26 126 -58z"/>
<path d="M6995 1839 c-137 -18 -264 -86 -315 -166 -51 -81 -36 -183 35 -229
48 -32 100 -34 222 -8 117 24 137 24 147 -3 18 -45 -81 -107 -190 -118 l-62
-7 -7 -60 c-9 -73 -1 -81 70 -73 176 21 320 105 361 210 19 50 14 93 -16 143
-46 76 -134 90 -302 50 -86 -20 -92 -20 -104 -4 -40 56 78 125 220 129 l61 2
6 65 c4 36 6 66 5 67 -7 8 -80 9 -131 2z"/>
<path d="M8216 1822 c-59 -7 -106 -60 -106 -117 0 -42 50 -85 98 -85 46 0 101
33 120 73 33 69 -29 140 -112 129z"/>
<path d="M4247 1603 c-108 -180 -368 -625 -373 -636 -3 -10 16 -18 71 -30 41
-10 83 -17 93 -17 17 1 27 15 197 303 47 81 90 145 94 142 5 -2 11 -41 14 -85
4 -45 14 -162 23 -260 l17 -179 68 -16 c120 -27 108 -36 225 163 10 17 53 89
94 158 l75 126 22 -219 c12 -120 22 -236 22 -259 1 -22 7 -47 14 -56 12 -16
181 -57 191 -47 3 3 -6 110 -19 239 -13 129 -31 310 -41 402 l-17 168 -36 10
c-52 15 -170 35 -174 29 -2 -2 -62 -102 -134 -222 l-130 -217 -7 57 c-4 32
-16 147 -26 257 -10 109 -20 200 -22 202 -4 4 -183 44 -197 44 -5 0 -25 -26
-44 -57z"/>
<path d="M6325 1620 c-71 -15 -155 -57 -155 -79 0 -5 16 -29 35 -55 37 -47 63
-57 85 -31 20 24 77 19 94 -7 11 -19 76 -239 76 -260 0 -3 -30 -14 -67 -24
-38 -9 -69 -18 -71 -19 -1 -2 5 -30 14 -64 20 -69 25 -72 110 -46 56 17 56 16
74 -61 11 -44 17 -54 34 -54 24 0 154 35 162 43 3 3 -2 31 -11 62 -9 32 -14
63 -11 70 2 7 21 15 40 19 41 8 42 12 20 85 l-15 52 -46 -3 -47 -3 -37 131
c-41 148 -57 180 -103 212 -58 39 -103 47 -181 32z"/>
<path d="M5702 1504 c-56 -39 -65 -122 -17 -170 19 -19 35 -24 75 -24 82 0
130 38 130 103 0 32 -36 86 -66 97 -38 15 -97 12 -122 -6z"/>
</g>
</svg>
